<?xml version="1.0" standalone="no"?>
<!DOCTYPE svg PUBLIC "-//W3C//DTD SVG 20010904//EN"
 "http://www.w3.org/TR/2001/REC-SVG-20010904/DTD/svg10.dtd">
<svg version="1.0" xmlns="http://www.w3.org/2000/svg"
 width="1104.000000pt" height="1280.000000pt" viewBox="0 0 1104.000000 1280.000000"
 preserveAspectRatio="xMidYMid meet">
<metadata>
Created by potrace 1.15, written by Peter Selinger 2001-2017
</metadata>
<g transform="translate(0.000000,1280.000000) scale(0.100000,-0.100000)"
fill="#fff" stroke="none">
<path d="M3098 12774 c-9 -20 -8 -48 5 -132 10 -59 17 -129 17 -155 0 -48 -22
-107 -40 -107 -5 0 -39 61 -76 135 -37 74 -83 153 -101 175 -33 39 -35 39 -59
24 -31 -21 -75 -114 -108 -234 -15 -52 -38 -112 -52 -133 -22 -34 -76 -77 -97
-77 -12 0 4 51 39 122 39 77 42 106 15 139 l-19 24 -26 -24 c-34 -32 -43 -66
-51 -186 -4 -54 -11 -108 -17 -120 -14 -27 -49 -55 -71 -55 -16 0 -18 8 -15
75 3 82 -12 113 -50 101 -17 -6 -20 -19 -26 -109 -4 -56 -14 -176 -22 -267
-22 -248 -29 -556 -15 -679 18 -147 54 -280 105 -385 43 -89 44 -91 29 -131
-8 -22 -17 -78 -20 -125 -9 -143 23 -233 175 -494 111 -192 151 -288 171 -415
l8 -50 -126 -41 c-656 -218 -1159 -660 -1675 -1474 -67 -107 -477 -795 -527
-886 -9 -17 -14 -62 -14 -145 0 -118 -1 -121 -32 -171 -196 -305 -333 -1015
-333 -1730 0 -93 5 -229 11 -302 l10 -132 -30 -38 c-56 -69 -75 -141 -75 -282
0 -148 21 -242 89 -386 40 -87 109 -179 125 -169 4 2 13 24 19 48 17 59 -3
110 -53 133 l-34 17 -7 106 c-10 132 2 451 20 594 15 114 44 247 54 247 4 0
14 -21 23 -48 31 -86 146 -262 258 -392 27 -32 29 -33 30 -12 0 12 -16 64 -36
115 -70 179 -79 243 -47 315 l16 37 7 -63 c8 -68 33 -106 76 -115 21 -4 24 -1
24 28 0 17 -9 58 -20 90 -22 65 -25 107 -10 136 31 56 72 -2 105 -149 27 -116
61 -194 89 -205 12 -5 14 7 13 68 -1 88 9 105 65 105 34 0 39 3 33 18 -19 47
-44 167 -50 238 -9 102 7 237 52 439 19 88 44 203 55 255 11 52 22 97 24 99 2
2 11 -2 20 -10 33 -27 46 -83 55 -226 5 -84 14 -156 23 -177 15 -35 67 -76 97
-76 40 0 63 307 35 469 l-17 95 25 20 c48 39 59 86 66 281 7 191 16 231 61
271 13 12 38 25 56 29 l32 6 -6 -188 c-3 -103 -2 -255 2 -336 l7 -148 25 23
c14 13 33 39 43 58 39 77 44 118 45 385 1 275 7 317 51 407 13 26 38 64 56 84
l32 37 -39 -6 c-22 -2 -61 -13 -88 -23 -36 -14 -51 -16 -65 -8 -27 18 -21 29
45 78 68 52 138 129 202 224 50 75 184 339 179 354 -8 23 -126 -113 -188 -216
-85 -140 -155 -231 -207 -269 -24 -17 -45 -29 -47 -26 -6 5 116 311 183 459
80 178 193 381 211 378 9 -2 20 -22 26 -48 6 -27 17 -46 27 -48 22 -4 84 77
159 210 64 114 185 257 195 231 8 -22 -18 -121 -47 -180 -16 -32 -71 -110
-121 -173 -89 -111 -153 -220 -143 -244 2 -6 20 -21 39 -33 26 -17 34 -30 37
-58 l3 -35 90 76 c124 105 179 158 236 233 49 64 52 87 13 79 -11 -2 -24 -17
-30 -36 -13 -42 -28 -55 -52 -48 -20 7 -20 9 12 84 147 343 288 518 491 613
44 20 95 40 113 44 18 4 36 14 39 23 34 104 110 192 166 192 75 0 104 -66 49
-112 -16 -13 -47 -30 -70 -37 -23 -8 -51 -24 -63 -37 l-21 -23 25 -25 c27 -27
58 -37 186 -61 l83 -16 47 52 c38 42 53 52 81 53 19 0 38 5 41 9 4 5 4 49 1
98 -4 77 -3 89 12 95 22 8 46 -5 125 -69 60 -48 89 -89 106 -144 5 -20 3 -23
-19 -23 -14 0 -40 9 -58 20 -33 20 -88 27 -88 12 0 -12 114 -83 245 -152 215
-113 299 -177 370 -283 33 -49 67 -136 79 -204 l5 -32 -69 24 c-89 30 -234
104 -335 170 -76 49 -275 202 -275 210 0 3 12 0 26 -5 14 -6 48 -10 75 -10
l49 0 -20 40 c-39 76 -92 91 -236 65 -111 -20 -175 -17 -233 12 l-41 20 0 -31
c0 -17 9 -49 19 -72 32 -70 93 -100 269 -134 146 -27 196 -43 238 -75 19 -15
34 -29 31 -31 -7 -8 -520 109 -580 131 -13 5 -14 1 -7 -27 4 -18 11 -41 15
-50 6 -16 2 -17 -38 -12 -94 13 -111 4 -247 -135 -109 -111 -133 -131 -185
-150 -46 -17 -75 -22 -122 -19 -62 4 -63 4 -63 -22 0 -29 17 -57 71 -117 41
-45 54 -90 41 -138 -8 -28 -12 -30 -61 -33 -49 -3 -52 -4 -44 -25 4 -12 8 -54
8 -93 0 -68 -2 -74 -49 -145 -42 -62 -51 -83 -54 -130 -2 -32 1 -66 7 -78 12
-21 11 -21 -94 -21 -67 0 -105 -4 -105 -10 0 -27 34 -70 99 -128 39 -35 71
-68 71 -73 0 -6 -46 -9 -120 -7 -66 2 -120 0 -120 -3 0 -3 9 -14 21 -25 23
-21 61 -92 75 -139 4 -16 8 -124 9 -240 0 -176 3 -218 18 -262 10 -28 25 -54
34 -57 9 -4 38 1 65 11 36 12 53 14 65 7 29 -18 25 -31 -7 -26 -41 6 -65 -17
-80 -76 -6 -26 -16 -52 -21 -58 -7 -9 16 -26 83 -61 118 -61 217 -155 241
-227 28 -81 37 -76 -157 -76 l-174 0 -13 38 c-26 80 -90 132 -164 132 -44 0
-55 -23 -55 -111 0 -76 17 -116 77 -180 44 -48 164 -119 200 -119 6 0 15 -5
18 -10 13 -22 -9 -51 -55 -75 -67 -34 -80 -56 -80 -136 0 -57 5 -77 37 -140
l38 -74 76 2 c67 1 110 8 183 30 26 7 19 -9 -50 -117 -67 -106 -75 -142 -42
-190 13 -19 29 -35 35 -35 6 0 27 23 48 50 136 182 305 275 423 234 16 -5 33
-18 36 -27 3 -9 11 -24 18 -34 10 -14 0 -27 -68 -91 -78 -74 -157 -188 -120
-174 88 34 288 61 386 52 143 -13 277 -53 349 -104 27 -19 29 -19 43 -3 71 85
96 221 63 358 -34 146 -58 150 -188 28 -76 -72 -108 -81 -145 -41 -24 25 -29
75 -11 108 5 11 36 36 67 56 31 20 66 44 78 55 20 18 22 18 65 -2 69 -31 167
-27 339 15 79 20 176 38 217 42 72 6 73 6 73 35 0 19 -13 42 -39 71 -45 49
-56 81 -42 120 9 24 16 27 54 27 53 0 108 18 297 100 175 75 245 91 295 67 19
-9 41 -27 50 -41 l16 -25 82 36 c45 19 217 89 382 154 510 204 762 342 980
536 55 49 126 121 157 160 l58 70 6 294 c6 247 4 307 -9 378 -19 97 -60 191
-107 244 -30 35 -36 37 -91 37 -146 0 -276 58 -569 255 -248 166 -394 238
-541 269 -23 5 -27 12 -37 75 -16 95 -41 148 -130 280 l-77 113 -110 -5 c-92
-4 -132 -11 -245 -46 -159 -49 -212 -56 -218 -26 -8 38 -69 120 -112 150 l-44
30 43 3 c23 2 65 -4 93 -12 57 -16 82 -10 93 25 5 15 -1 29 -25 52 -18 18 -51
59 -73 92 -64 96 -127 155 -167 155 -18 0 -11 -36 15 -71 53 -74 57 -85 35
-111 l-19 -23 -1 27 c0 31 -24 48 -67 48 -88 -1 -103 -32 -29 -66 29 -13 60
-32 68 -42 19 -21 30 -62 17 -62 -6 0 -60 26 -122 58 -114 58 -227 150 -227
185 0 32 40 55 105 62 34 4 72 4 84 0 20 -6 21 -4 21 99 0 58 3 106 6 106 3 0
14 -5 25 -11 45 -24 79 29 94 146 10 78 13 82 58 94 84 21 137 72 162 155 l15
49 -69 -5 c-83 -6 -158 -43 -206 -103 -18 -22 -64 -92 -102 -155 -39 -63 -75
-116 -80 -117 -18 -6 4 94 36 159 59 123 200 259 366 353 44 25 72 45 62 45
-10 0 -42 22 -70 49 -70 65 -90 74 -143 66 -42 -6 -44 -8 -64 -63 -11 -31 -27
-76 -36 -98 -23 -65 -71 -130 -108 -148 -19 -9 -37 -16 -41 -16 -16 0 34 236
66 309 40 91 108 138 213 148 l64 6 -19 54 c-17 51 -40 181 -54 318 -23 215
-71 358 -148 443 -16 17 -23 19 -29 10 -13 -22 -9 -63 18 -169 26 -99 26 -103
9 -138 l-17 -36 -23 29 c-31 39 -42 82 -55 211 -19 200 -36 262 -81 300 -55
46 -63 37 -55 -63 9 -125 36 -226 112 -424 73 -192 94 -271 94 -369 l0 -66
-62 -31 c-141 -70 -250 -193 -373 -424 -40 -75 -55 -96 -56 -78 -7 150 36 260
205 524 101 157 179 298 179 321 0 6 -25 49 -55 97 -106 166 -185 376 -318
842 -73 257 -150 499 -175 551 -14 29 -15 29 -9 -25 3 -30 22 -127 41 -215 33
-152 46 -286 29 -313 -5 -8 -17 -1 -35 21 -40 45 -67 101 -87 177 -22 88 -14
310 21 570 31 227 32 448 1 530 -26 72 -84 139 -151 177 -33 18 -63 33 -68 33
-4 0 -13 -11 -19 -26z"/>
<path d="M3434 12503 c26 -86 106 -520 106 -579 0 -6 18 -14 41 -17 47 -6 82
-35 110 -89 l19 -37 30 30 c17 17 35 29 42 27 17 -6 90 -142 160 -298 98 -219
210 -430 228 -430 10 0 -1 414 -12 427 -17 21 -42 15 -83 -17 -21 -16 -39 -30
-41 -30 -1 0 -10 26 -19 58 -9 31 -39 103 -66 159 -59 120 -152 228 -245 283
-33 19 -62 39 -66 45 -14 19 -8 94 17 197 31 128 31 144 3 151 -33 9 -48 -10
-48 -60 0 -87 -61 -60 -80 36 -19 94 -38 137 -66 150 -33 15 -36 14 -30 -6z"/>
<path d="M10136 11824 c-13 -33 -5 -64 30 -114 46 -67 39 -96 -11 -51 -20 17
-40 31 -45 31 -6 0 -33 11 -61 24 l-50 25 7 -22 c4 -12 7 -114 7 -227 0 -284
-34 -473 -122 -680 -54 -128 -174 -312 -245 -379 -14 -14 -26 -27 -26 -31 0
-4 57 -6 128 -6 143 1 184 -10 207 -55 8 -15 15 -33 15 -39 0 -6 -40 -10 -109
-10 l-109 0 -6 -34 c-9 -46 7 -81 60 -138 37 -40 43 -52 34 -63 -7 -8 -27 -15
-45 -15 -18 0 -52 -7 -75 -15 -54 -19 -90 -19 -117 0 -21 15 -23 14 -29 -9 -6
-27 6 -55 48 -106 21 -26 28 -45 28 -76 l0 -42 -34 8 c-70 15 -111 -26 -130
-131 -15 -85 -81 -116 -128 -60 -52 61 -98 65 -98 9 0 -91 -109 -203 -251
-258 -89 -35 -98 -69 -27 -97 33 -13 39 -20 36 -42 -3 -24 -7 -26 -53 -29 -27
-2 -87 4 -133 14 -66 14 -87 15 -108 5 -23 -10 -26 -16 -20 -43 12 -62 65
-126 182 -218 120 -94 167 -148 186 -212 15 -52 44 -59 110 -25 27 14 56 23
63 21 9 -4 16 6 20 29 13 67 -14 137 -88 228 -54 66 -70 96 -63 115 7 19 36
18 97 -7 29 -11 66 -19 83 -17 28 3 31 6 34 43 2 22 7 44 11 48 5 5 30 -6 57
-22 26 -17 53 -31 60 -31 7 0 13 25 17 62 6 68 21 88 66 88 81 0 151 -50 172
-121 16 -51 7 -60 -66 -62 -69 -2 -85 -18 -66 -65 12 -29 28 -42 129 -106 49
-31 82 -78 82 -118 0 -29 -8 -32 -70 -29 -46 3 -70 24 -120 102 -52 82 -91
113 -138 107 -25 -3 -27 -7 -26 -44 0 -33 11 -56 48 -108 38 -53 45 -70 36
-81 -10 -12 -16 -11 -43 6 -39 23 -95 25 -103 4 -9 -21 12 -43 64 -67 61 -29
76 -55 68 -121 -9 -73 -54 -147 -112 -186 -53 -35 -69 -38 -78 -15 -12 30 -6
72 20 140 28 74 26 102 -8 134 -30 27 -38 25 -38 -10 0 -42 -31 -70 -77 -70
-21 0 -75 15 -119 34 l-82 33 -6 -36 c-3 -20 -28 -72 -56 -115 -62 -100 -74
-134 -60 -172 l11 -29 16 33 c16 34 69 67 145 91 38 12 82 47 90 72 7 20 50
-32 83 -99 52 -106 65 -231 35 -343 -10 -34 -16 -39 -93 -70 -270 -107 -514
-264 -679 -437 -188 -198 -271 -382 -267 -596 l2 -99 -32 -11 c-24 -8 -40 -26
-66 -73 l-35 -63 36 0 c80 0 113 -45 134 -185 6 -44 18 -90 26 -102 16 -25 54
-31 54 -9 0 23 49 75 94 98 33 18 63 23 153 26 l112 4 45 48 c84 90 126 206
126 350 0 100 -18 180 -61 268 -32 66 -119 168 -163 191 -14 8 -26 17 -26 21
0 10 100 81 143 101 49 22 159 25 197 6 13 -7 46 -39 71 -71 169 -209 230
-592 144 -891 -87 -300 -286 -448 -557 -414 -111 14 -159 33 -186 75 -20 30
-87 73 -98 62 -2 -2 3 -34 11 -71 39 -186 124 -273 274 -279 l64 -3 72 -90
c41 -49 139 -164 220 -255 176 -198 295 -353 364 -475 59 -103 55 -112 -35
-69 -43 20 -85 55 -164 136 -97 100 -153 148 -172 148 -15 0 -8 -40 19 -105
l27 -66 -21 -20 -20 -21 -22 44 c-27 57 -85 124 -123 144 -28 14 -68 11 -68
-5 0 -4 48 -64 106 -132 126 -147 179 -224 199 -293 18 -60 18 -66 3 -66 -25
0 -82 56 -153 149 -65 87 -143 167 -152 157 -6 -6 27 -88 64 -159 44 -84 128
-174 193 -205 55 -26 153 -52 197 -52 26 0 34 5 39 24 11 44 -13 99 -67 151
-70 68 -103 144 -56 129 47 -15 123 -76 256 -207 l138 -136 -81 -27 c-92 -30
-166 -66 -212 -101 -35 -26 -90 -100 -81 -109 3 -3 40 0 81 7 85 13 170 8 233
-14 23 -8 87 -40 141 -71 110 -63 191 -94 264 -103 26 -3 48 -7 48 -9 0 -2 7
-54 15 -117 17 -131 50 -265 94 -385 17 -46 31 -85 31 -87 0 -2 -15 -1 -34 2
-27 4 -36 1 -50 -18 -9 -13 -16 -40 -16 -59 0 -45 -23 -79 -43 -65 -124 88
-165 105 -221 91 -30 -7 -65 -63 -44 -71 7 -3 82 -23 165 -45 223 -58 300
-101 338 -193 14 -34 14 -38 -1 -44 -24 -9 -47 9 -56 44 -8 32 -28 46 -52 37
-38 -14 -27 -59 34 -135 22 -29 39 -57 37 -63 -12 -37 -133 -4 -306 83 -111
56 -244 111 -269 111 -26 0 149 -138 318 -250 278 -185 427 -319 511 -460 51
-87 94 -218 108 -335 16 -130 17 -125 -27 -125 -20 0 -51 -8 -69 -17 -32 -19
-103 -78 -103 -88 0 -11 89 -4 136 10 79 24 111 20 129 -16 13 -24 14 -37 5
-63 -14 -43 -41 -67 -120 -106 -62 -31 -120 -81 -120 -103 0 -7 37 -8 113 -4
140 8 161 0 165 -61 4 -57 -21 -105 -82 -155 -79 -66 -156 -145 -156 -162 0
-9 17 -23 38 -32 32 -13 51 -14 132 -5 110 13 138 9 146 -23 14 -55 -20 -107
-95 -145 -33 -16 -62 -34 -66 -40 -11 -17 -22 -11 -35 20 -16 39 -71 92 -112
106 -51 19 -143 16 -269 -8 -141 -26 -326 -30 -378 -6 l-34 15 58 27 c44 20
91 58 194 160 133 130 183 167 266 191 l40 12 3 120 3 120 -68 -1 c-47 -1 -79
5 -105 17 -82 41 -168 158 -198 269 -7 26 -11 80 -8 122 4 85 23 121 76 146
34 16 42 30 17 30 -8 0 -44 30 -79 66 -43 44 -70 65 -82 62 -11 -2 -33 -26
-51 -53 -45 -70 -67 -85 -120 -85 -41 0 -49 5 -117 69 -40 38 -82 72 -94 75
-20 7 -75 -14 -86 -33 -9 -13 25 -37 78 -55 57 -19 96 -51 96 -79 0 -18 -6
-19 -82 -15 -60 4 -101 12 -147 32 -35 15 -85 30 -112 33 l-49 6 0 -49 c0 -59
14 -82 98 -159 35 -32 65 -69 68 -84 3 -14 8 -34 11 -43 4 -16 -6 -18 -106
-18 l-111 0 0 25 c0 68 -55 110 -178 139 l-64 15 -15 -37 c-33 -80 -4 -156
109 -280 44 -48 88 -100 98 -115 14 -23 19 -25 24 -12 21 56 -2 119 -72 199
-59 67 -68 87 -52 117 12 21 12 21 30 -9 27 -44 78 -75 211 -127 66 -26 119
-50 119 -53 -1 -4 -20 -16 -43 -27 -45 -22 -70 -58 -61 -92 5 -16 17 -23 52
-28 59 -9 89 -24 128 -67 51 -53 67 -95 72 -183 3 -59 0 -90 -12 -119 -22 -53
-21 -56 23 -56 32 0 57 12 128 60 97 66 127 73 181 40 17 -11 32 -22 32 -25 0
-20 -48 -91 -104 -155 -58 -65 -116 -156 -105 -164 86 -61 110 -82 123 -110
31 -65 18 -90 -89 -170 -77 -58 -110 -89 -126 -118 -8 -15 -4 -16 39 -11 71 8
88 -5 112 -86 21 -72 39 -94 83 -105 38 -9 62 7 81 53 35 88 92 76 166 -34 78
-115 119 -140 175 -105 41 25 71 67 146 204 33 60 70 112 94 133 l40 34 -40
-6 c-22 -3 -69 -10 -105 -15 -36 -5 -159 -24 -275 -44 -246 -40 -318 -48 -311
-32 2 6 17 48 32 94 16 49 39 96 56 114 l28 30 82 -7 c143 -12 287 17 381 77
26 17 49 29 50 27 1 -2 9 -17 17 -33 26 -52 66 -67 192 -73 120 -5 178 -17
178 -36 -1 -29 -40 -95 -77 -128 -22 -20 -73 -56 -112 -79 -112 -67 -172 -149
-159 -216 2 -10 23 -30 48 -43 94 -50 94 -50 74 -72 -32 -36 -82 -60 -216
-105 -146 -50 -206 -80 -237 -120 -30 -38 -26 -48 21 -70 72 -32 154 -25 276
24 132 54 169 55 212 6 17 -20 33 -35 34 -33 19 22 29 69 36 164 5 67 15 125
24 143 35 68 42 49 50 -133 6 -144 24 -202 79 -251 l42 -39 6 210 c4 116 14
278 23 360 43 405 -1 786 -174 1500 -104 428 -107 441 -169 785 -17 91 -42
206 -56 255 -52 178 -149 320 -269 395 -46 28 -55 39 -51 55 88 292 22 813
-135 1076 -26 43 -46 80 -44 82 2 2 24 73 48 159 194 676 233 1458 125 2543
-21 218 -42 393 -95 815 -19 151 -37 295 -40 320 -5 42 -2 49 43 105 107 131
306 398 405 545 337 495 520 894 595 1295 23 124 23 411 0 513 -48 210 -135
387 -266 540 -41 49 -46 52 -58 36 -7 -10 -13 -39 -13 -65 0 -70 -14 -99 -47
-99 -25 0 -30 5 -45 58 -23 77 -70 145 -137 198 -51 41 -276 164 -299 164 -6
0 -13 -7 -16 -16z"/>
<path d="M9796 11313 c-3 -3 -6 -48 -6 -98 0 -102 8 -119 56 -113 21 2 30 10
35 32 9 34 -5 110 -27 143 -16 25 -48 45 -58 36z"/>
<path d="M9685 11068 c-32 -37 -79 -131 -133 -260 -79 -190 -137 -248 -217
-219 -17 6 -34 11 -38 11 -14 0 -6 -97 13 -150 28 -80 26 -124 -6 -149 -30
-24 -76 -27 -93 -7 -6 7 -18 36 -26 64 -26 86 -65 95 -86 20 -18 -67 0 -133
66 -234 30 -46 62 -101 70 -121 17 -41 20 -120 5 -159 -6 -15 -9 -28 -7 -30 8
-9 89 71 107 105 29 57 49 146 56 252 l7 97 48 4 c26 3 59 12 73 22 22 14 26
24 26 66 0 27 -9 88 -20 135 -29 124 -29 122 33 128 28 3 76 13 105 23 l52 18
0 208 c0 114 -2 208 -4 208 -2 0 -16 -14 -31 -32z"/>
<path d="M4385 10753 c-5 -179 -4 -256 5 -278 11 -29 47 -75 59 -75 3 0 6 46
7 103 0 78 8 131 31 227 17 69 34 158 38 198 l7 72 -70 0 -69 0 -8 -247z"/>
<path d="M4544 10534 c-26 -61 -30 -161 -8 -209 16 -37 18 -38 21 -15 3 14 13
55 24 91 25 86 25 131 -1 154 -19 18 -20 17 -36 -21z"/>
<path d="M4651 10428 c-44 -140 -30 -278 28 -278 16 0 19 13 25 125 6 95 4
131 -6 151 -19 39 -35 40 -47 2z"/>
<path d="M8982 10253 c2 -4 20 -40 40 -79 61 -118 83 -243 70 -401 -4 -46 -4
-83 0 -83 4 0 20 21 35 48 26 44 28 54 28 167 0 96 -5 134 -23 192 -29 94 -76
157 -121 161 -18 2 -31 0 -29 -5z"/>
<path d="M5520 10114 c-211 -11 -723 -56 -787 -69 l-22 -5 23 -53 c13 -28 29
-81 35 -117 28 -144 52 -217 82 -251 25 -29 29 -31 24 -11 -9 32 17 68 61 82
47 16 167 7 225 -17 l42 -16 -26 -23 c-15 -12 -64 -34 -110 -48 -119 -37 -171
-84 -133 -122 9 -9 16 -32 16 -55 l0 -39 126 0 125 0 31 68 c16 37 39 77 50
89 20 21 20 21 52 2 40 -25 103 -24 184 1 35 11 90 20 122 20 50 0 65 -5 110
-35 l52 -35 19 23 c10 12 18 25 19 29 0 4 17 19 38 33 52 34 120 46 185 31
l52 -12 48 69 c73 103 158 149 218 117 32 -18 22 -50 -30 -99 -27 -25 -51 -56
-54 -68 -4 -19 0 -22 44 -28 72 -10 120 2 233 56 56 26 118 51 138 55 33 5 38
3 51 -23 24 -44 58 -71 108 -82 53 -12 106 -5 259 34 114 30 203 36 237 17 19
-11 21 -16 11 -43 -17 -49 -84 -111 -181 -168 l-88 -51 -122 26 c-151 31 -313
41 -399 25 -60 -12 -178 -66 -178 -81 0 -9 157 -18 525 -30 160 -6 319 -14
355 -19 36 -5 89 -12 118 -16 l53 -8 -2 77 c-1 43 2 81 7 86 11 9 310 50 372
50 66 0 129 -20 162 -50 28 -26 30 -33 30 -98 0 -78 -20 -120 -78 -159 l-33
-22 41 -30 c100 -73 260 -95 395 -56 72 20 199 85 188 95 -4 4 -51 24 -105 44
-112 43 -198 96 -250 153 -67 75 -67 76 4 129 75 56 153 94 191 94 27 0 27 0
27 -70 0 -68 1 -70 24 -70 42 0 69 16 132 79 84 84 106 82 59 -6 -40 -75 -45
-117 -16 -133 32 -17 50 -12 81 23 46 50 94 150 141 295 43 131 44 133 61 112
25 -31 22 -67 -13 -164 -37 -103 -36 -146 3 -160 23 -8 31 -6 43 10 43 56 72
244 55 363 -10 75 -27 141 -36 141 -2 0 -28 -16 -56 -35 -28 -20 -128 -73
-222 -119 -94 -46 -190 -100 -213 -120 l-41 -36 -231 0 -231 0 -98 49 c-366
183 -823 300 -1392 356 -149 15 -769 27 -940 19z"/>
<path d="M4560 9666 c0 -13 3 -32 6 -41 16 -41 126 -61 159 -29 10 11 15 29
13 53 l-3 36 -87 3 c-88 3 -88 3 -88 -22z"/>
<path d="M5954 9466 c-27 -12 -52 -39 -78 -83 -6 -10 14 -13 84 -13 l91 0 -3
53 c-3 50 -4 52 -33 54 -16 2 -44 -3 -61 -11z"/>
<path d="M4487 9421 c-2 -11 -22 -28 -44 -39 -52 -27 -65 -44 -61 -84 3 -29 7
-33 35 -36 46 -5 107 30 127 72 21 45 20 52 -9 81 -29 30 -41 31 -48 6z"/>
<path d="M5265 9371 c-66 -30 -105 -86 -105 -150 l0 -29 58 13 c83 18 123 37
160 79 39 45 40 58 6 85 -33 26 -67 26 -119 2z"/>
<path d="M5457 9258 c-12 -9 -18 -23 -15 -38 3 -22 8 -24 79 -28 61 -3 79 0
92 13 18 17 22 41 10 48 -5 3 -39 8 -78 11 -52 6 -75 4 -88 -6z"/>
<path d="M4637 9230 c-21 -10 -83 -47 -139 -81 -88 -55 -109 -64 -160 -67 -42
-3 -56 -8 -49 -16 5 -6 11 -25 13 -41 l3 -30 -76 3 c-42 2 -79 0 -82 -6 -4 -5
21 -26 55 -48 43 -28 91 -75 165 -164 91 -108 204 -220 223 -220 3 0 12 15 18
34 17 45 59 81 167 141 67 38 95 60 114 91 l26 42 120 -5 c180 -8 245 18 245
96 0 50 -8 56 -36 26 -26 -28 -67 -32 -144 -14 -25 6 -69 10 -97 10 l-53 0 21
40 c24 48 22 92 -4 97 -10 2 -40 -15 -70 -41 -29 -24 -68 -54 -87 -66 -37 -22
-95 -27 -120 -11 -12 8 -10 10 8 10 18 0 27 9 39 40 14 34 21 40 45 40 30 0
30 -4 14 72 -3 14 -18 40 -32 57 -31 37 -69 40 -127 11z"/>
<path d="M6170 9174 c-181 -28 -378 -85 -656 -189 l-101 -38 -12 -47 c-24 -95
-95 -146 -284 -206 -49 -15 -86 -32 -84 -38 7 -20 87 -75 125 -86 20 -5 53
-10 74 -10 35 0 38 3 96 98 34 53 89 132 124 176 l63 78 100 -5 c55 -3 132
-14 170 -25 39 -11 141 -41 228 -66 87 -25 162 -46 167 -46 4 0 17 17 27 38
40 76 90 91 236 73 31 -4 57 -4 57 -1 0 11 -43 47 -75 63 -56 28 -108 29 -265
6 -129 -18 -161 -20 -203 -10 -49 11 -117 53 -117 71 0 11 48 37 94 53 17 5
175 13 351 17 288 6 325 8 371 27 28 11 61 27 73 35 21 15 20 16 -41 28 -100
19 -406 22 -518 4z"/>
<path d="M7460 9081 c0 -6 9 -49 20 -96 25 -109 25 -160 -1 -235 l-20 -59 36
-65 35 -64 84 5 c58 4 110 0 172 -12 78 -15 166 -17 224 -3 9 2 12 -18 11 -84
-1 -49 0 -88 3 -88 2 0 17 5 32 10 45 17 81 2 145 -61 53 -52 64 -59 99 -59
34 0 40 -3 40 -20 0 -30 -24 -82 -48 -103 -19 -18 -21 -18 -64 4 -23 12 -71
44 -106 71 -61 49 -142 88 -182 88 -24 0 -25 -4 -3 -36 9 -14 55 -45 104 -70
96 -48 119 -72 121 -129 1 -32 -5 -43 -50 -84 -38 -35 -52 -55 -52 -74 0 -24
4 -27 33 -27 48 0 64 -17 89 -95 26 -79 54 -103 103 -91 27 7 28 8 22 67 -3
38 -15 79 -33 112 -45 85 -62 120 -68 149 -9 41 27 60 124 66 l78 4 6 39 c3
21 27 81 52 133 25 53 48 113 51 134 5 35 1 44 -31 78 l-35 39 -1 -56 c0 -58
-14 -81 -67 -108 -35 -18 -38 -14 -35 38 4 45 -2 59 -52 147 -30 54 -57 101
-58 106 -2 5 -116 11 -253 13 l-250 5 -21 43 c-12 23 -34 84 -49 136 -38 136
-68 186 -125 216 -37 18 -80 27 -80 16z"/>
<path d="M6720 8923 c0 -14 16 -55 35 -89 l36 -63 -55 -31 c-68 -39 -113 -88
-122 -135 -3 -20 -5 -38 -2 -40 2 -2 42 23 88 57 109 78 186 114 288 134 l82
17 55 -52 c93 -88 174 -110 210 -58 21 30 19 34 -19 41 -56 11 -60 25 -26 97
l30 64 -57 8 c-32 5 -100 6 -151 3 -106 -5 -148 -23 -172 -74 l-16 -33 -21 23
c-29 30 -43 70 -43 119 l0 39 -70 0 c-69 0 -70 0 -70 -27z"/>
<path d="M7920 8922 c0 -14 9 -40 21 -59 14 -22 20 -45 17 -63 -4 -29 -4 -30
41 -30 25 -1 75 -7 111 -15 77 -17 134 -19 160 -5 20 10 40 59 40 96 0 23 -3
24 -70 24 -55 0 -88 7 -153 32 -45 17 -101 35 -124 38 -41 6 -43 6 -43 -18z"/>
<path d="M5415 8629 c4 -19 13 -46 21 -60 14 -28 76 -87 121 -115 15 -10 45
-31 65 -47 l38 -29 33 74 c53 113 48 111 234 105 128 -3 170 -9 222 -26 146
-51 212 -126 213 -243 l0 -50 81 4 c104 6 141 24 254 128 48 44 90 80 94 80
18 0 48 -55 74 -136 18 -59 37 -98 57 -117 l29 -30 15 21 c13 19 21 21 74 15
51 -5 61 -3 66 11 12 31 -28 69 -91 88 -75 23 -91 36 -68 53 12 9 18 34 22 96
4 46 10 90 15 98 8 12 -3 13 -63 7 -91 -9 -145 -28 -311 -110 l-134 -67 -36
43 c-136 166 -246 202 -667 218 -142 5 -282 13 -312 16 l-53 7 7 -34z"/>
<path d="M6167 8465 c-10 -7 -48 -18 -85 -25 -106 -17 -102 -15 -102 -73 0
-56 -11 -79 -66 -137 -19 -20 -37 -50 -40 -69 l-7 -33 69 35 c181 91 293 221
258 297 -8 16 -11 17 -27 5z"/>
<path d="M2684 8438 c-48 -12 -125 -87 -166 -162 -20 -36 -32 -66 -27 -66 23
0 107 51 142 87 38 37 91 127 85 142 -2 4 -17 4 -34 -1z"/>
<path d="M7495 8423 c-22 -2 -92 -13 -156 -23 -64 -11 -120 -20 -124 -20 -4 0
-5 -20 -3 -44 4 -33 18 -61 51 -106 26 -34 49 -77 53 -96 4 -25 13 -36 29 -40
37 -9 64 5 116 58 27 27 52 48 58 46 5 -1 25 -23 45 -47 l36 -43 -32 -17 c-29
-14 -33 -22 -36 -58 l-3 -43 104 0 104 0 -1 42 c-1 42 -1 43 46 58 63 20 72
31 64 74 -12 63 -37 71 -210 68 -88 -1 -164 2 -183 9 -30 10 -63 42 -63 61 0
12 119 10 184 -3 77 -16 137 0 129 34 -9 36 -53 76 -92 82 -63 10 -75 11 -116
8z"/>
<path d="M8554 8333 c3 -26 17 -61 32 -80 22 -30 125 -113 139 -113 3 0 5 23
5 50 0 28 9 82 19 120 l20 70 -111 0 -111 0 7 -47z"/>
<path d="M6437 8093 c-14 -24 -28 -133 -28 -228 -1 -158 23 -283 72 -387 l20
-43 -6 60 c-32 275 -20 451 40 588 6 15 1 17 -43 17 -28 0 -53 -3 -55 -7z"/>
<path d="M8356 8011 c-16 -18 -16 -20 10 -39 16 -11 60 -64 98 -118 39 -54 76
-99 83 -101 24 -8 34 70 20 153 -13 77 -14 79 -44 81 -17 1 -51 12 -77 23 -59
25 -68 25 -90 1z"/>
<path d="M7735 7790 c-3 -11 0 -32 7 -47 24 -50 112 -41 137 14 22 48 17 53
-63 53 -66 0 -75 -2 -81 -20z"/>
<path d="M7605 7688 c9 -28 42 -84 99 -164 43 -61 44 -62 55 -38 40 88 -20
183 -137 219 -22 6 -23 5 -17 -17z"/>
<path d="M6679 7499 c-2 -64 2 -104 17 -183 15 -74 15 -146 0 -191 -9 -29 115
-117 158 -113 40 4 44 24 8 42 -45 23 -69 85 -92 235 -20 134 -43 204 -73 230
-15 12 -17 10 -18 -20z"/>
<path d="M6514 7376 c3 -10 14 -48 23 -83 17 -70 45 -117 82 -142 l24 -16 -6
37 c-9 60 -56 153 -94 189 -25 24 -34 28 -29 15z"/>
<path d="M1883 7232 c-35 -133 -46 -192 -33 -192 17 0 71 53 95 94 36 62 50
129 35 166 -12 28 -37 50 -57 50 -4 0 -22 -53 -40 -118z"/>
<path d="M7600 7122 c0 -41 31 -119 57 -144 53 -51 75 -52 166 -13 89 39 170
92 187 125 10 18 8 20 -22 20 -19 0 -69 -18 -116 -41 -79 -40 -83 -41 -101
-24 -11 9 -23 34 -26 56 l-7 39 -69 0 c-60 0 -69 -2 -69 -18z"/>
<path d="M7154 6971 c-22 -10 -50 -31 -62 -45 -21 -27 -21 -27 -1 -47 10 -10
19 -27 19 -38 0 -16 5 -17 38 -11 54 10 73 22 126 84 l47 56 -26 10 c-40 15
-95 12 -141 -9z"/>
<path d="M1660 6866 c0 -13 -9 -53 -20 -89 -33 -107 -42 -170 -29 -203 l11
-29 14 33 c11 24 20 32 39 32 30 0 29 -2 10 45 -17 39 -18 35 25 168 7 22 5
32 -11 48 -26 26 -39 24 -39 -5z"/>
<path d="M7107 6363 c-2 -5 -10 -24 -16 -44 -6 -20 -22 -46 -35 -59 -39 -35
-83 -29 -205 30 -154 74 -238 72 -170 -4 42 -48 81 -67 222 -110 64 -19 136
-45 161 -57 42 -19 106 -79 106 -98 0 -4 -18 -16 -41 -26 -22 -10 -44 -26 -50
-36 -12 -23 -11 -103 2 -159 6 -25 14 -67 18 -93 l8 -48 -57 -45 c-62 -48
-108 -107 -134 -168 -25 -59 -21 -82 20 -113 68 -52 92 -78 98 -105 4 -16 3
-28 -2 -28 -4 0 -35 23 -67 51 -50 42 -122 89 -138 89 -2 0 -9 -18 -16 -40 -6
-22 -26 -56 -42 -75 -27 -31 -37 -35 -78 -35 -47 0 -147 41 -216 89 -16 12
-33 21 -36 21 -4 0 -1 -28 6 -62 44 -210 40 -297 -14 -339 l-26 -21 -6 44 c-3
23 -13 57 -22 75 -9 18 -17 46 -17 63 0 16 -4 30 -9 30 -22 0 -65 -48 -95
-109 l-34 -67 24 -23 c68 -65 100 -171 70 -229 -14 -28 -20 -31 -36 -22 -39
21 -54 59 -58 150 -4 84 -5 87 -27 82 -12 -2 -44 8 -71 22 -35 19 -51 23 -61
14 -20 -16 -17 -24 32 -83 51 -63 62 -97 57 -172 -2 -21 -3 -21 -49 -6 -51 15
-139 11 -176 -8 -17 -10 -19 -9 -12 7 27 64 32 90 24 106 -14 25 -38 23 -32
-2 7 -25 -19 -56 -69 -81 -39 -20 -55 -52 -44 -86 4 -11 44 -36 103 -63 117
-53 210 -114 440 -287 158 -118 305 -211 360 -227 20 -7 21 -5 10 30 -18 59
-93 132 -227 219 -69 45 -135 93 -148 107 -23 25 -47 88 -33 88 11 0 175 -113
265 -184 102 -80 271 -237 403 -375 97 -101 102 -105 103 -76 0 35 -15 60 -77
127 -48 52 -66 89 -56 115 16 45 25 43 64 -17 43 -63 97 -116 135 -130 25 -10
74 2 74 18 0 19 -70 100 -141 164 -71 63 -121 130 -107 144 11 10 119 -67 179
-128 96 -97 152 -227 172 -398 l12 -101 66 49 c195 148 327 386 384 692 54
295 39 686 -42 1050 -75 343 -212 703 -343 908 l-39 62 -120 0 c-66 0 -122 -3
-124 -7z"/>
<path d="M4421 5300 c-35 -23 -98 -69 -141 -103 -42 -34 -90 -72 -106 -84
l-29 -22 25 0 c42 -1 130 26 170 53 21 13 53 44 72 68 38 48 81 118 75 124 -2
2 -32 -14 -66 -36z"/>
<path d="M8084 5244 c-10 -40 2 -102 37 -189 17 -44 34 -83 38 -87 3 -4 6 52
6 123 l0 131 -28 24 c-36 30 -45 30 -53 -2z"/>
<path d="M4665 5152 c-11 -75 -55 -110 -197 -155 -91 -30 -126 -46 -155 -73
-30 -29 -34 -37 -23 -45 9 -6 98 -8 216 -7 214 3 234 -1 234 -45 0 -17 5 -19
33 -14 18 3 55 19 82 36 35 22 61 31 92 31 l44 0 -16 -30 c-19 -36 -19 -54 -1
-69 19 -16 68 60 68 107 0 44 -53 202 -68 202 -6 0 -36 -22 -67 -49 -67 -59
-108 -75 -163 -63 l-39 8 0 85 c-1 108 -2 116 -19 122 -10 4 -16 -7 -21 -41z"/>
<path d="M3953 5090 c-23 -5 -55 -16 -71 -24 -37 -19 -92 -65 -92 -77 0 -14
174 -1 219 17 23 9 53 30 67 47 l27 32 -24 6 c-32 9 -75 9 -126 -1z"/>
<path d="M5760 4965 c0 -20 -44 -108 -82 -163 -43 -63 -70 -129 -63 -153 6
-19 13 -15 71 42 102 101 135 189 99 259 -17 33 -25 38 -25 15z"/>
<path d="M3827 4773 c-4 -3 -7 -33 -7 -66 0 -51 7 -74 49 -161 27 -55 52 -114
56 -130 6 -26 4 -28 -19 -22 -13 3 -30 8 -38 11 -7 3 -22 -1 -33 -9 -18 -13
-18 -14 0 -42 10 -16 62 -72 116 -124 73 -70 100 -104 105 -127 7 -36 12 -38
64 -23 59 17 167 30 199 24 29 -6 31 -9 31 -51 0 -24 7 -60 15 -80 8 -19 15
-44 15 -55 0 -10 7 -21 14 -24 28 -11 121 25 213 81 103 62 107 62 162 0 40
-46 76 -116 94 -189 9 -32 17 -60 19 -62 2 -2 31 8 64 21 102 42 193 30 247
-34 36 -43 50 -94 45 -174 l-3 -67 27 0 c32 0 82 41 122 99 l28 40 -30 39
c-55 69 -120 121 -284 228 -89 58 -187 131 -218 163 -61 60 -111 147 -131 226
-6 26 -17 48 -23 50 -6 2 -22 6 -37 9 -14 3 -65 31 -114 63 -77 50 -96 58
-135 57 -72 -1 -90 -16 -90 -74 0 -68 35 -107 137 -150 72 -30 143 -85 143
-110 0 -6 -27 -10 -62 -10 -78 0 -111 19 -199 114 -68 73 -107 96 -164 96 -34
0 -35 -1 -35 -39 0 -22 -6 -44 -15 -51 -13 -11 -23 -6 -63 29 -26 23 -64 54
-84 69 -21 15 -37 30 -38 33 0 3 64 38 143 77 142 71 255 113 335 127 47 8 48
11 28 60 -17 41 -42 57 -140 95 -42 16 -86 36 -99 45 -44 28 -50 -12 -12 -82
27 -52 21 -73 -22 -73 -37 0 -82 28 -148 91 -34 32 -78 65 -98 74 -37 15 -118
21 -130 8z"/>
<path d="M8704 4708 c10 -81 29 -125 61 -140 14 -6 28 -9 31 -5 11 10 -37 162
-58 185 -34 36 -41 27 -34 -40z"/>
<path d="M8520 4665 c0 -62 4 -79 20 -95 21 -21 46 -25 68 -12 9 6 10 21 1 68
-16 86 -33 114 -71 114 -16 0 -18 -10 -18 -75z"/>
<path d="M4883 4463 c-18 -2 -33 -9 -33 -14 0 -24 84 -172 141 -249 34 -47
139 -164 233 -260 229 -234 274 -284 340 -383 56 -84 63 -98 49 -96 -22 4 -70
-2 -82 -10 -20 -13 -15 -95 7 -133 23 -40 63 -62 162 -91 119 -35 141 -45 173
-75 15 -14 27 -22 27 -18 0 16 -75 206 -105 266 -53 106 -146 238 -239 343
-48 53 -91 97 -96 97 -6 0 -10 5 -10 11 0 9 20 10 67 6 73 -7 105 -24 194
-103 29 -26 67 -53 85 -60 36 -15 104 -19 104 -6 0 26 -72 327 -89 373 -30 79
-77 146 -130 185 -46 33 -119 64 -153 64 -25 0 -24 -45 3 -89 16 -27 18 -36 7
-42 -7 -5 -15 -9 -18 -9 -19 0 -119 70 -190 133 -47 42 -107 89 -135 106 -85
51 -189 69 -312 54z"/>
<path d="M9120 4309 c1 -55 11 -69 88 -114 53 -31 82 -59 82 -79 0 -13 -24 -4
-63 23 -81 55 -123 71 -187 71 -33 0 -60 -4 -60 -9 0 -25 23 -65 56 -98 32
-31 36 -41 31 -72 -3 -20 -8 -44 -12 -53 -6 -15 -2 -18 22 -18 21 0 38 -10 60
-35 27 -30 38 -35 76 -35 59 0 93 28 128 106 31 67 68 104 105 104 31 0 30 16
-5 72 -38 59 -116 112 -211 142 -41 14 -83 27 -92 31 -16 6 -18 1 -18 -36z"/>
<path d="M8838 3839 c-4 -73 -26 -88 -162 -104 -101 -12 -156 -32 -156 -56 0
-16 31 -72 54 -97 35 -39 70 -51 206 -72 147 -22 191 -38 238 -82 l32 -32 0
40 c0 52 37 123 77 150 39 26 112 37 187 28 l56 -7 -6 34 c-3 19 -17 57 -30
86 -29 60 -86 104 -168 127 -53 15 -217 36 -285 36 l-40 0 -3 -51z"/>
<path d="M6015 3813 c4 -21 14 -50 23 -66 20 -33 91 -70 126 -65 l25 3 -24 60
c-30 73 -66 105 -119 105 l-38 0 7 -37z"/>
<path d="M6760 3821 c0 -29 191 -226 203 -210 2 2 0 23 -5 46 -11 50 -74 125
-129 153 -41 21 -69 26 -69 11z"/>
<path d="M8180 3781 c-69 -22 -142 -72 -310 -214 -51 -43 -99 -81 -106 -84 -8
-3 -14 -10 -14 -15 0 -16 120 2 175 26 28 13 85 46 128 74 123 81 169 88 304
47 23 -7 23 -7 9 33 -43 120 -98 160 -186 133z"/>
<path d="M3404 3616 c-18 -12 -65 -33 -105 -45 -107 -32 -126 -41 -154 -67
-40 -37 -33 -48 31 -41 73 8 150 46 219 109 71 65 77 92 9 44z"/>
<path d="M3520 3563 c-11 -25 -20 -56 -20 -69 0 -22 4 -24 45 -24 59 0 104
-19 138 -59 27 -32 35 -61 18 -61 -16 0 -40 -66 -51 -141 -15 -100 -27 -136
-53 -154 -21 -15 -21 -15 -2 -30 11 -8 64 -43 117 -77 54 -34 123 -82 154
-107 54 -44 130 -149 123 -169 -2 -6 -42 18 -88 53 -85 63 -182 117 -234 130
-22 6 -27 4 -27 -12 0 -10 -7 -29 -16 -41 -13 -18 -13 -29 -4 -57 16 -49 70
-89 169 -125 145 -52 183 -81 206 -159 l7 -24 -83 6 c-46 3 -113 15 -149 26
-72 23 -157 27 -181 8 -8 -7 -24 -24 -33 -39 l-18 -28 53 0 c64 0 117 -23 178
-74 25 -21 61 -46 82 -57 l37 -19 42 50 c45 53 92 76 139 65 34 -7 30 -19 51
150 6 50 21 137 32 194 11 57 16 107 11 111 -4 4 -55 26 -113 49 -58 24 -123
53 -146 66 -63 37 -120 106 -138 166 -22 71 -21 74 17 46 91 -69 293 -159 527
-235 205 -67 202 -79 29 129 -164 198 -288 327 -385 401 l-61 47 -49 -15 c-67
-21 -96 -13 -178 50 -39 30 -83 59 -98 65 -26 10 -28 8 -48 -36z"/>
<path d="M5946 3443 c88 -184 106 -218 169 -301 51 -67 146 -138 201 -148 58
-11 156 1 212 26 53 23 54 23 47 59 -9 52 -36 92 -75 115 -28 16 -57 21 -156
24 l-121 4 -22 52 c-29 70 -98 146 -215 236 -53 41 -96 78 -96 82 0 5 -4 8
-10 8 -5 0 25 -71 66 -157z"/>
<path d="M6263 3486 c-18 -8 -33 -17 -33 -20 0 -2 25 -16 55 -30 141 -64 267
-172 338 -288 37 -62 87 -199 87 -241 0 -37 13 -46 85 -63 87 -20 194 -20 233
0 52 27 49 44 -20 114 -80 81 -132 112 -202 119 l-54 6 -7 43 c-17 117 -140
270 -266 332 -80 39 -167 50 -216 28z"/>
<path d="M8311 3477 c-67 -11 -75 -14 -78 -37 -6 -40 -30 -67 -69 -80 -37 -12
-63 -12 -339 5 -100 7 -123 -1 -106 -33 16 -30 14 -87 -4 -102 -10 -8 -56 -12
-150 -11 -74 1 -135 -3 -135 -8 0 -4 9 -29 21 -55 11 -25 17 -51 13 -57 -3 -6
-29 -22 -57 -34 -50 -24 -50 -24 -21 -30 92 -21 117 -30 199 -70 108 -54 175
-111 354 -302 72 -78 145 -152 161 -163 l29 -20 6 21 c18 56 -12 129 -100 237
-32 40 -55 105 -41 119 17 17 170 -39 339 -125 4 -2 7 14 7 37 0 22 4 50 9 63
9 23 11 24 177 28 335 8 395 6 453 -14 57 -20 122 -71 153 -121 l19 -30 -7 41
c-4 25 -1 58 7 80 16 50 14 79 -11 121 l-19 33 69 0 c67 0 69 1 74 28 6 27 0
70 -25 169 -12 47 -17 52 -51 62 -21 7 -127 57 -237 112 -125 62 -229 107
-278 120 -96 25 -262 32 -362 16z"/>
<path d="M6686 3429 c13 -72 50 -115 159 -189 67 -46 112 -84 126 -108 30 -49
29 -48 39 -32 18 28 11 131 -10 176 -43 87 -165 168 -272 181 l-48 6 6 -34z"/>
<path d="M5100 2929 c0 -28 81 -106 189 -182 64 -45 135 -101 159 -125 52 -51
90 -131 99 -202 l6 -52 37 5 c31 4 82 23 124 45 9 5 4 -30 -9 -60 -12 -30 15
-20 55 20 42 42 72 115 93 225 l14 75 -49 -34 c-89 -60 -168 -44 -288 60 -154
133 -200 167 -261 195 -71 32 -169 50 -169 30z"/>
<path d="M7110 2926 c0 -35 51 -114 130 -201 44 -49 90 -107 101 -127 20 -38
26 -118 10 -118 -13 0 -115 86 -166 140 -61 64 -124 91 -169 74 -25 -9 10 -52
120 -146 78 -66 144 -144 144 -171 0 -3 -60 -7 -133 -9 -106 -2 -138 -7 -160
-20 -26 -18 -26 -18 -12 -64 7 -26 24 -58 37 -72 33 -36 129 -96 137 -85 21
31 56 42 113 36 57 -6 60 -5 93 27 28 27 33 29 28 12 -3 -12 4 -39 16 -62 18
-35 29 -90 17 -90 -2 0 -63 -9 -136 -20 -191 -29 -292 -25 -438 16 l-23 7 20
-54 c28 -74 109 -149 243 -223 58 -32 128 -77 154 -100 l49 -43 160 1 160 1
-3 33 c-1 18 -11 51 -22 72 -25 49 -25 62 0 85 19 17 21 17 62 -20 47 -42 98
-110 98 -132 0 -21 -35 -86 -57 -106 -14 -12 -44 -19 -99 -23 -104 -8 -203 11
-419 81 -217 71 -393 103 -410 75 -3 -6 4 -10 17 -10 33 0 119 -52 156 -94 42
-49 72 -108 72 -146 0 -34 -2 -35 -33 -16 -12 8 -71 31 -132 51 -115 39 -178
67 -207 92 -19 17 -18 32 14 153 75 283 78 310 57 412 -11 49 -12 51 -21 28
-5 -14 -25 -132 -44 -263 -34 -243 -54 -339 -81 -390 -8 -16 -13 -30 -11 -32
12 -11 76 -37 148 -60 143 -47 203 -85 237 -149 16 -30 21 -154 9 -194 -6 -17
-1 -21 25 -27 41 -9 75 15 110 79 15 27 33 52 40 57 31 19 77 9 137 -31 68
-46 111 -91 171 -179 l42 -61 -27 -10 c-14 -6 -95 -10 -179 -9 -137 0 -159 -2
-202 -21 -41 -19 -45 -23 -28 -30 11 -4 47 -10 80 -14 147 -16 214 -44 278
-115 l37 -41 0 47 c1 65 26 115 99 197 75 84 89 127 67 194 -25 71 -15 76 155
80 l140 4 10 26 c6 15 26 60 47 101 44 90 46 131 10 168 l-27 26 -48 -31 c-58
-37 -148 -74 -240 -98 -86 -23 -252 -25 -302 -3 l-35 15 71 0 c63 0 77 4 125
33 111 70 121 75 187 80 l65 6 18 78 c22 99 40 133 81 153 17 9 34 18 35 19
10 9 -43 100 -100 175 -69 90 -111 163 -101 174 14 13 56 5 98 -19 39 -24 44
-24 59 -10 19 19 20 31 5 41 -31 19 -109 172 -124 243 l-7 33 52 -3 51 -4 -6
35 c-7 44 -45 120 -116 232 -50 80 -57 87 -87 88 -17 0 -49 -9 -69 -20 -52
-28 -68 -25 -93 15 -53 86 -188 174 -281 183 -41 4 -49 2 -49 -12z"/>
<path d="M9363 2888 c-34 -17 -28 -25 27 -37 77 -17 160 -54 279 -125 61 -36
113 -66 116 -66 13 0 -36 77 -67 107 -103 97 -280 157 -355 121z"/>
<path d="M9776 2835 c66 -78 184 -171 269 -212 38 -18 74 -33 80 -33 7 0 10
-20 7 -58 -5 -65 14 -112 65 -168 35 -38 81 -69 90 -61 12 12 15 143 4 184
-31 115 -133 204 -356 313 -217 106 -221 107 -159 35z"/>
<path d="M5930 2555 c0 -9 -21 -64 -46 -123 -43 -98 -47 -115 -52 -209 l-5
-103 -193 0 c-224 0 -218 4 -157 -94 35 -57 35 -60 17 -73 -14 -11 -40 -14
-100 -11 -73 4 -89 8 -150 44 -117 68 -156 80 -147 44 9 -34 -6 -70 -34 -81
-23 -9 -79 0 -166 27 -18 6 -18 4 -2 -26 27 -52 93 -117 174 -171 183 -122
229 -171 258 -268 24 -86 53 -95 83 -26 27 63 49 60 96 -11 102 -153 344 -279
472 -246 49 13 111 67 95 83 -4 4 -62 29 -128 54 -260 100 -302 118 -362 151
-35 19 -63 37 -63 39 0 4 41 0 205 -21 182 -24 323 -18 373 15 11 7 8 19 -13
60 -16 33 -29 80 -34 125 -5 39 -16 86 -25 104 -19 36 -19 36 49 47 103 17
229 107 295 212 45 70 72 167 68 244 -3 57 -4 62 -16 42 -7 -12 -19 -59 -28
-105 -16 -84 -25 -110 -51 -140 -13 -15 -18 -15 -37 -3 -11 7 -46 16 -76 20
-68 9 -110 30 -110 54 0 40 62 61 109 37 30 -16 31 -16 31 6 -1 33 -25 96 -46
119 -10 11 -49 29 -88 40 -39 11 -86 28 -105 37 -36 18 -71 64 -71 94 0 9 -4
20 -10 23 -5 3 -10 -1 -10 -10z"/>
<path d="M5144 2435 c8 -19 49 -96 91 -170 52 -91 80 -132 90 -129 14 6 29 36
44 91 9 31 8 34 -25 49 -20 9 -50 35 -67 57 -50 63 -123 137 -136 137 -8 0 -7
-10 3 -35z"/>
<path d="M8435 2332 c76 -52 118 -95 268 -277 67 -82 141 -164 165 -183 l43
-35 -35 83 c-69 164 -153 287 -248 366 -64 54 -115 76 -188 82 l-65 5 60 -41z"/>
<path d="M8245 2239 c19 -66 58 -121 160 -231 102 -108 160 -190 179 -254 6
-20 3 -20 -49 -16 -65 5 -92 -9 -132 -69 l-26 -40 -52 130 c-59 146 -101 218
-153 261 -20 16 -37 28 -39 26 -11 -11 40 -131 102 -241 77 -136 103 -206 106
-290 4 -102 4 -100 -48 -101 -38 -1 -52 -7 -70 -28 -13 -15 -23 -38 -23 -52
l0 -24 38 19 c57 29 131 48 297 75 173 29 228 44 287 79 51 30 120 97 115 111
-6 19 -80 34 -164 35 l-83 1 0 33 c0 17 -7 57 -15 87 -8 30 -16 88 -16 128 -2
71 -2 72 -28 72 -15 0 -50 11 -78 25 -49 25 -72 47 -194 186 -31 35 -71 72
-89 83 l-32 18 7 -23z"/>
<path d="M7924 1817 c3 -10 15 -55 27 -100 31 -124 86 -282 131 -380 23 -48
43 -86 44 -84 8 8 -20 188 -41 274 -30 117 -73 208 -126 264 -22 24 -38 36
-35 26z"/>
<path d="M4889 1361 c15 -27 68 -69 109 -87 20 -8 90 -28 155 -45 134 -34 204
-65 237 -106 l23 -28 -7 43 c-21 138 -111 193 -361 222 -49 6 -107 13 -128 15
-35 5 -37 4 -28 -14z"/>
<path d="M8885 1320 c-9 -10 -57 -36 -105 -56 -117 -48 -160 -95 -160 -174 0
-28 2 -29 67 -36 88 -9 253 1 326 21 32 8 83 27 113 41 59 28 159 114 186 161
l17 29 -107 -28 c-59 -15 -126 -28 -150 -28 -50 0 -112 29 -140 65 -24 30 -24
30 -47 5z"/>
<path d="M5030 1161 c0 -12 53 -82 81 -108 27 -24 138 -93 151 -93 4 0 8 29 8
65 l0 65 -48 0 c-39 0 -58 6 -92 31 -43 32 -100 54 -100 40z"/>
<path d="M7836 1079 c-75 -8 -119 -32 -124 -66 -2 -16 4 -22 30 -27 64 -11
130 16 187 78 l24 26 -24 -1 c-13 -1 -55 -5 -93 -10z"/>
<path d="M7695 831 c-11 -5 -29 -18 -39 -30 l-20 -22 40 6 c24 4 76 -1 137
-14 78 -16 103 -18 120 -9 21 11 20 12 -19 30 -50 21 -150 48 -179 47 -11 0
-29 -4 -40 -8z"/>
<path d="M7841 629 c-7 -23 -15 -47 -18 -55 -4 -11 9 -12 67 -9 81 6 173 41
211 81 l22 24 -135 0 -135 0 -12 -41z"/>
<path d="M6972 564 c3 -3 62 -21 129 -41 105 -30 140 -36 231 -37 100 -1 108
1 132 23 14 14 26 33 26 43 0 17 -15 18 -262 18 -144 0 -259 -3 -256 -6z"/>
<path d="M7905 491 c-60 -21 -120 -43 -133 -50 -70 -38 69 -44 144 -6 47 23
113 80 103 89 -2 2 -53 -13 -114 -33z"/>
<path d="M9475 456 c-56 -18 -81 -32 -152 -89 -62 -50 -62 -50 -41 -66 32 -22
85 -16 158 18 94 45 100 43 140 -39 l34 -70 69 0 c38 0 88 5 109 12 57 17 131
87 156 148 26 61 25 61 -101 19 -123 -42 -171 -43 -203 -6 -13 15 -24 37 -24
48 0 37 -70 49 -145 25z"/>
</g>
</svg>
